<svg width="168" height="161" viewBox="0 0 168 161" fill="none" xmlns="http://www.w3.org/2000/svg">
<path d="M168 77.9363C168 123.811 130.392 161 84 161C37.6081 161 0 123.811 0 77.9363C0 32.0615 37.6081 0 84 0C130.392 0 168 32.0615 168 77.9363Z" fill="#E01D49"/>
<path d="M60.42 58.66L59.82 63.52H48.36V100H42.66V63.52H30.9V58.66H60.42ZM95.3161 86.74C95.3161 89.5 94.7361 91.94 93.5761 94.06C92.4561 96.14 90.7961 97.78 88.5961 98.98C86.4361 100.14 83.8361 100.72 80.7961 100.72C76.1961 100.72 72.6361 99.46 70.1161 96.94C67.6361 94.38 66.3961 90.98 66.3961 86.74V58.66H72.0961V86.32C72.0961 89.52 72.8161 91.92 74.2561 93.52C75.6961 95.12 77.8761 95.92 80.7961 95.92C83.7561 95.92 85.9561 95.14 87.3961 93.58C88.8361 91.98 89.5561 89.56 89.5561 86.32V58.66H95.3161V86.74ZM106.723 100V58.66H128.683L128.023 63.22H112.423V77.32H125.923V81.82H112.423V100H106.723Z" fill="white"/>
</svg>
